<?xml version="1.0" encoding="UTF-8"?>
<svg xmlns="http://www.w3.org/2000/svg" xmlns:xlink="http://www.w3.org/1999/xlink" width="450" height="150" viewBox="25 475 360 120" style="background:#FFFFFF;" version="1.1">

<defs>
<clipPath id="leaf">
  <path d="M 67.5625 534.113281 C 68.726562 531.722656 69.601562 529.207031 70.320312 526.628906 C 70.257812 529.835938 70.425781 532.917969 70.9375 535.8125 C 72.328125 534.953125 73.742188 533.949219 75.175781 532.816406 C 82.894531 521.722656 75.757812 510.804688 67.035156 507.5 C 59.027344 515.417969 60.035156 523.902344 67.5625 534.113281 M 43.089844 510.890625 C 41.414062 511.785156 40.171875 512.050781 38.261719 511.378906 C 38.925781 513.308594 38.695312 514.476562 37.773438 516.210938 C 33.429688 525.148438 45.796875 534.941406 57.53125 536.054688 C 58.371094 536.105469 59.210938 536.128906 60.050781 536.121094 C 58.472656 532.992188 56.441406 530.105469 54.257812 527.375 C 56.988281 529.558594 59.875 531.589844 63.003906 533.164062 C 63.011719 532.324219 62.988281 531.488281 62.933594 530.648438 C 61.980469 520.558594 54.609375 510 46.875 510 C 45.613281 510 44.34375 510.28125 43.089844 510.890625 M 74.566406 534.839844 C 73.851562 536.136719 73.226562 537.476562 72.699219 538.859375 C 74.53125 539.1875 76.359375 539.171875 78.195312 538.996094 C 76.136719 539.804688 74.113281 540.667969 72.246094 541.796875 C 81.398438 544.742188 83.738281 536.171875 82.703125 527.375 C 79.820312 528.828125 76.808594 531.132812 74.566406 534.839844 M 34.386719 540.152344 C 37.6875 548.871094 48.605469 556.011719 59.703125 548.292969 C 60.835938 546.859375 61.835938 545.445312 62.695312 544.054688 C 59.800781 543.546875 56.71875 543.378906 53.511719 543.4375 C 56.089844 542.71875 58.601562 541.839844 60.996094 540.679688 C 55.636719 536.730469 50.753906 534.574219 46.179688 534.574219 C 42.035156 534.574219 38.148438 536.34375 34.386719 540.152344 M 65.878906 551.3125 C 66.054688 549.476562 66.070312 547.648438 65.742188 545.816406 C 64.359375 546.34375 63.015625 546.96875 61.722656 547.683594 C 58.015625 549.925781 55.710938 552.9375 54.257812 555.820312 C 63.054688 556.855469 71.625 554.519531 68.679688 545.363281 C 67.550781 547.230469 66.6875 549.253906 65.878906 551.3125 "/>
</clipPath>

<linearGradient id="linear0" gradientUnits="userSpaceOnUse" x1="0.36453" y1="0" x2="1.357612" y2="0" gradientTransform="matrix(-50.178123,-50.178123,50.178123,-50.178123,102.029671,575.146214)">
<stop offset="0" style="stop-color:rgb(97.528076%,65.527344%,4.940796%);stop-opacity:1;"/>
<stop offset="0.125" style="stop-color:rgb(97.528076%,65.527344%,4.940796%);stop-opacity:1;"/>
<stop offset="0.1875" style="stop-color:rgb(97.528076%,65.527344%,4.940796%);stop-opacity:1;"/>
<stop offset="0.21875" style="stop-color:rgb(97.528076%,65.527344%,4.940796%);stop-opacity:1;"/>
<stop offset="0.222656" style="stop-color:rgb(97.515869%,65.386963%,5.395508%);stop-opacity:1;"/>
<stop offset="0.226563" style="stop-color:rgb(97.503662%,65.24353%,5.84259%);stop-opacity:1;"/>
<stop offset="0.230469" style="stop-color:rgb(97.471619%,64.872742%,6.95343%);stop-opacity:1;"/>
<stop offset="0.234375" style="stop-color:rgb(97.438049%,64.485168%,8.027649%);stop-opacity:1;"/>
<stop offset="0.238281" style="stop-color:rgb(97.402954%,64.091492%,9.059143%);stop-opacity:1;"/>
<stop offset="0.242187" style="stop-color:rgb(97.369385%,63.684082%,10.055542%);stop-opacity:1;"/>
<stop offset="0.246094" style="stop-color:rgb(97.332764%,63.269043%,11.00769%);stop-opacity:1;"/>
<stop offset="0.25" style="stop-color:rgb(97.297668%,62.840271%,11.924744%);stop-opacity:1;"/>
<stop offset="0.253906" style="stop-color:rgb(97.259521%,62.402344%,12.800598%);stop-opacity:1;"/>
<stop offset="0.257812" style="stop-color:rgb(97.2229%,61.955261%,13.644409%);stop-opacity:1;"/>
<stop offset="0.261719" style="stop-color:rgb(97.183228%,61.499023%,14.445496%);stop-opacity:1;"/>
<stop offset="0.265625" style="stop-color:rgb(97.145081%,61.030579%,15.214539%);stop-opacity:1;"/>
<stop offset="0.269531" style="stop-color:rgb(97.105408%,60.55603%,15.945435%);stop-opacity:1;"/>
<stop offset="0.273437" style="stop-color:rgb(97.064209%,60.070801%,16.642761%);stop-opacity:1;"/>
<stop offset="0.277344" style="stop-color:rgb(97.02301%,59.577942%,17.304993%);stop-opacity:1;"/>
<stop offset="0.28125" style="stop-color:rgb(96.981812%,59.074402%,17.933655%);stop-opacity:1;"/>
<stop offset="0.285156" style="stop-color:rgb(96.939087%,58.563232%,18.527222%);stop-opacity:1;"/>
<stop offset="0.289062" style="stop-color:rgb(96.896362%,58.044434%,19.091797%);stop-opacity:1;"/>
<stop offset="0.292969" style="stop-color:rgb(96.853638%,57.518005%,19.621277%);stop-opacity:1;"/>
<stop offset="0.296875" style="stop-color:rgb(96.809387%,56.982422%,20.121765%);stop-opacity:1;"/>
<stop offset="0.300781" style="stop-color:rgb(96.765137%,56.442261%,20.59021%);stop-opacity:1;"/>
<stop offset="0.304687" style="stop-color:rgb(96.720886%,55.891418%,21.028137%);stop-opacity:1;"/>
<stop offset="0.308594" style="stop-color:rgb(96.67511%,55.33905%,21.437073%);stop-opacity:1;"/>
<stop offset="0.3125" style="stop-color:rgb(96.629333%,54.772949%,21.818542%);stop-opacity:1;"/>
<stop offset="0.316406" style="stop-color:rgb(96.582031%,54.205322%,22.171021%);stop-opacity:1;"/>
<stop offset="0.320312" style="stop-color:rgb(96.536255%,53.630066%,22.497559%);stop-opacity:1;"/>
<stop offset="0.324219" style="stop-color:rgb(96.488953%,53.050232%,22.796631%);stop-opacity:1;"/>
<stop offset="0.328125" style="stop-color:rgb(96.440125%,52.462769%,23.071289%);stop-opacity:1;"/>
<stop offset="0.332031" style="stop-color:rgb(96.392822%,51.872253%,23.318481%);stop-opacity:1;"/>
<stop offset="0.335938" style="stop-color:rgb(96.343994%,51.272583%,23.544312%);stop-opacity:1;"/>
<stop offset="0.339844" style="stop-color:rgb(96.295166%,50.674438%,23.742676%);stop-opacity:1;"/>
<stop offset="0.34375" style="stop-color:rgb(96.246338%,50.065613%,23.921204%);stop-opacity:1;"/>
<stop offset="0.347656" style="stop-color:rgb(96.195984%,49.456787%,24.075317%);stop-opacity:1;"/>
<stop offset="0.351563" style="stop-color:rgb(96.14563%,48.840332%,24.209595%);stop-opacity:1;"/>
<stop offset="0.355469" style="stop-color:rgb(96.096802%,48.225403%,24.32251%);stop-opacity:1;"/>
<stop offset="0.359375" style="stop-color:rgb(96.044922%,47.601318%,24.414062%);stop-opacity:1;"/>
<stop offset="0.363281" style="stop-color:rgb(95.994568%,46.97876%,24.487305%);stop-opacity:1;"/>
<stop offset="0.367188" style="stop-color:rgb(95.944214%,46.348572%,24.54071%);stop-opacity:1;"/>
<stop offset="0.371094" style="stop-color:rgb(95.892334%,45.721436%,24.577332%);stop-opacity:1;"/>
<stop offset="0.375" style="stop-color:rgb(95.840454%,45.08667%,24.595642%);stop-opacity:1;"/>
<stop offset="0.378906" style="stop-color:rgb(95.7901%,44.45343%,24.597168%);stop-opacity:1;"/>
<stop offset="0.382812" style="stop-color:rgb(95.73822%,43.814087%,24.581909%);stop-opacity:1;"/>
<stop offset="0.386719" style="stop-color:rgb(95.68634%,43.177795%,24.554443%);stop-opacity:1;"/>
<stop offset="0.390625" style="stop-color:rgb(95.632935%,42.536926%,24.508667%);stop-opacity:1;"/>
<stop offset="0.394531" style="stop-color:rgb(95.581055%,41.897583%,24.449158%);stop-opacity:1;"/>
<stop offset="0.398437" style="stop-color:rgb(95.529175%,41.252136%,24.377441%);stop-opacity:1;"/>
<stop offset="0.402344" style="stop-color:rgb(95.475769%,40.614319%,24.293518%);stop-opacity:1;"/>
<stop offset="0.40625" style="stop-color:rgb(95.423889%,39.968872%,24.195862%);stop-opacity:1;"/>
<stop offset="0.410156" style="stop-color:rgb(95.370483%,39.329529%,24.087524%);stop-opacity:1;"/>
<stop offset="0.414062" style="stop-color:rgb(95.318604%,38.682556%,23.96698%);stop-opacity:1;"/>
<stop offset="0.417969" style="stop-color:rgb(95.265198%,38.043213%,23.83728%);stop-opacity:1;"/>
<stop offset="0.421875" style="stop-color:rgb(95.213318%,37.400818%,23.698425%);stop-opacity:1;"/>
<stop offset="0.425781" style="stop-color:rgb(95.159912%,36.763%,23.550415%);stop-opacity:1;"/>
<stop offset="0.429688" style="stop-color:rgb(95.108032%,36.120605%,23.391724%);stop-opacity:1;"/>
<stop offset="0.433594" style="stop-color:rgb(95.054626%,35.487366%,23.226929%);stop-opacity:1;"/>
<stop offset="0.4375" style="stop-color:rgb(95.002747%,34.848022%,23.054504%);stop-opacity:1;"/>
<stop offset="0.441406" style="stop-color:rgb(94.949341%,34.21936%,22.875977%);stop-opacity:1;"/>
<stop offset="0.445313" style="stop-color:rgb(94.897461%,33.583069%,22.688293%);stop-opacity:1;"/>
<stop offset="0.449219" style="stop-color:rgb(94.845581%,32.957458%,22.499084%);stop-opacity:1;"/>
<stop offset="0.453125" style="stop-color:rgb(94.792175%,32.327271%,22.30072%);stop-opacity:1;"/>
<stop offset="0.457031" style="stop-color:rgb(94.741821%,31.707764%,22.099304%);stop-opacity:1;"/>
<stop offset="0.460938" style="stop-color:rgb(94.688416%,31.085205%,21.893311%);stop-opacity:1;"/>
<stop offset="0.464844" style="stop-color:rgb(94.638062%,30.473328%,21.685791%);stop-opacity:1;"/>
<stop offset="0.46875" style="stop-color:rgb(94.586182%,29.855347%,21.470642%);stop-opacity:1;"/>
<stop offset="0.472656" style="stop-color:rgb(94.535828%,29.251099%,21.257019%);stop-opacity:1;"/>
<stop offset="0.476563" style="stop-color:rgb(94.483948%,28.642273%,21.038818%);stop-opacity:1;"/>
<stop offset="0.480469" style="stop-color:rgb(94.433594%,28.04718%,20.820618%);stop-opacity:1;"/>
<stop offset="0.484375" style="stop-color:rgb(94.38324%,27.449036%,20.596313%);stop-opacity:1;"/>
<stop offset="0.488281" style="stop-color:rgb(94.332886%,26.861572%,20.376587%);stop-opacity:1;"/>
<stop offset="0.492188" style="stop-color:rgb(94.284058%,26.272583%,20.152283%);stop-opacity:1;"/>
<stop offset="0.496094" style="stop-color:rgb(94.235229%,25.697327%,19.93103%);stop-opacity:1;"/>
<stop offset="0.5" style="stop-color:rgb(94.184875%,25.119019%,19.706726%);stop-opacity:1;"/>
<stop offset="0.503906" style="stop-color:rgb(94.137573%,24.555969%,19.485474%);stop-opacity:1;"/>
<stop offset="0.507812" style="stop-color:rgb(94.088745%,23.988342%,19.261169%);stop-opacity:1;"/>
<stop offset="0.511719" style="stop-color:rgb(94.041443%,23.4375%,19.042969%);stop-opacity:1;"/>
<stop offset="0.515625" style="stop-color:rgb(93.994141%,22.885132%,18.821716%);stop-opacity:1;"/>
<stop offset="0.519531" style="stop-color:rgb(93.946838%,22.348022%,18.606567%);stop-opacity:1;"/>
<stop offset="0.523438" style="stop-color:rgb(93.901062%,21.807861%,18.389893%);stop-opacity:1;"/>
<stop offset="0.527344" style="stop-color:rgb(93.855286%,21.286011%,18.179321%);stop-opacity:1;"/>
<stop offset="0.53125" style="stop-color:rgb(93.809509%,20.762634%,17.967224%);stop-opacity:1;"/>
<stop offset="0.535156" style="stop-color:rgb(93.766785%,20.256042%,17.76123%);stop-opacity:1;"/>
<stop offset="0.539062" style="stop-color:rgb(93.722534%,19.746399%,17.555237%);stop-opacity:1;"/>
<stop offset="0.542969" style="stop-color:rgb(93.678284%,19.256592%,17.356873%);stop-opacity:1;"/>
<stop offset="0.546875" style="stop-color:rgb(93.635559%,18.766785%,17.158508%);stop-opacity:1;"/>
<stop offset="0.550781" style="stop-color:rgb(93.59436%,18.293762%,16.967773%);stop-opacity:1;"/>
<stop offset="0.554687" style="stop-color:rgb(93.553162%,17.82074%,16.777039%);stop-opacity:1;"/>
<stop offset="0.558594" style="stop-color:rgb(93.513489%,17.36908%,16.593933%);stop-opacity:1;"/>
<stop offset="0.5625" style="stop-color:rgb(93.47229%,16.914368%,16.412354%);stop-opacity:1;"/>
<stop offset="0.566406" style="stop-color:rgb(93.434143%,16.48407%,16.239929%);stop-opacity:1;"/>
<stop offset="0.570312" style="stop-color:rgb(93.395996%,16.049194%,16.067505%);stop-opacity:1;"/>
<stop offset="0.574219" style="stop-color:rgb(93.359375%,15.640259%,15.904236%);stop-opacity:1;"/>
<stop offset="0.578125" style="stop-color:rgb(93.322754%,15.229797%,15.742493%);stop-opacity:1;"/>
<stop offset="0.582031" style="stop-color:rgb(93.289185%,14.845276%,15.589905%);stop-opacity:1;"/>
<stop offset="0.585938" style="stop-color:rgb(93.254089%,14.457703%,15.438843%);stop-opacity:1;"/>
<stop offset="0.589844" style="stop-color:rgb(93.222046%,14.097595%,15.298462%);stop-opacity:1;"/>
<stop offset="0.59375" style="stop-color:rgb(93.190002%,13.737488%,15.158081%);stop-opacity:1;"/>
<stop offset="0.597656" style="stop-color:rgb(93.159485%,13.404846%,15.029907%);stop-opacity:1;"/>
<stop offset="0.601562" style="stop-color:rgb(93.128967%,13.07373%,14.903259%);stop-opacity:1;"/>
<stop offset="0.605469" style="stop-color:rgb(93.103027%,12.773132%,14.788818%);stop-opacity:1;"/>
<stop offset="0.609375" style="stop-color:rgb(93.075562%,12.471008%,14.674377%);stop-opacity:1;"/>
<stop offset="0.613281" style="stop-color:rgb(93.051147%,12.207031%,14.575195%);stop-opacity:1;"/>
<stop offset="0.617188" style="stop-color:rgb(93.026733%,11.941528%,14.474487%);stop-opacity:1;"/>
<stop offset="0.621094" style="stop-color:rgb(93.006897%,11.717224%,14.39209%);stop-opacity:1;"/>
<stop offset="0.625" style="stop-color:rgb(92.985535%,11.49292%,14.308167%);stop-opacity:1;"/>
<stop offset="0.628906" style="stop-color:rgb(92.970276%,11.322021%,14.245605%);stop-opacity:1;"/>
<stop offset="0.632812" style="stop-color:rgb(92.955017%,11.149597%,14.181519%);stop-opacity:1;"/>
<stop offset="0.640625" style="stop-color:rgb(92.947388%,11.065674%,14.151001%);stop-opacity:1;"/>
<stop offset="0.65625" style="stop-color:rgb(92.939758%,10.978699%,14.118958%);stop-opacity:1;"/>
<stop offset="0.6875" style="stop-color:rgb(92.939758%,10.978699%,14.118958%);stop-opacity:1;"/>
<stop offset="0.75" style="stop-color:rgb(92.939758%,10.978699%,14.118958%);stop-opacity:1;"/>
<stop offset="1" style="stop-color:rgb(92.939758%,10.978699%,14.118958%);stop-opacity:1;"/>
</linearGradient>

</defs>

<g tranform="translate(0, -550)">

<path style=" stroke:none;fill-rule:nonzero;fill:rgb(97.528076%,65.527344%,4.940796%);fill-opacity:1;" d="M 107.769531 554.214844 C 107.875 554.179688 107.976562 554.148438 108.082031 554.113281 C 108.101562 554.15625 108.117188 554.199219 108.136719 554.242188 C 107.457031 554.566406 106.796875 554.964844 106.085938 555.183594 C 105.714844 555.296875 105.265625 555.164062 104.90625 555.460938 C 104.03125 556.179688 102.949219 556.183594 101.902344 556.332031 C 101.578125 556.378906 101.261719 556.507812 100.949219 556.609375 C 100.601562 556.722656 100.265625 556.878906 99.914062 556.964844 C 99.285156 557.117188 98.628906 557.191406 98.011719 557.375 C 97.277344 557.59375 96.597656 557.832031 95.777344 557.667969 C 95.15625 557.542969 94.464844 557.746094 93.804688 557.796875 C 93.695312 557.804688 93.558594 557.8125 93.46875 557.761719 C 92.277344 557.074219 91.761719 555.542969 92.386719 554.300781 C 92.675781 553.726562 92.640625 553.167969 92.652344 552.578125 C 92.675781 551.136719 93.050781 549.800781 93.96875 548.65625 C 94.222656 548.339844 94.507812 548.042969 94.75 547.714844 C 94.855469 547.566406 94.886719 547.367188 95.003906 547.046875 C 94.445312 547.21875 94.03125 547.339844 93.621094 547.476562 C 92.652344 547.804688 91.707031 548.226562 90.714844 548.453125 C 89.660156 548.691406 88.699219 549.179688 87.652344 549.414062 C 86.582031 549.648438 85.53125 549.957031 84.453125 550.136719 C 83.726562 550.257812 82.972656 550.210938 82.230469 550.242188 C 81.472656 550.277344 80.710938 550.378906 79.957031 550.335938 C 79.441406 550.308594 78.929688 550.109375 78.429688 549.9375 C 78.117188 549.828125 77.894531 549.609375 77.941406 549.203125 C 77.976562 548.886719 77.949219 548.5625 77.949219 548.199219 C 78.101562 548.199219 78.261719 548.148438 78.355469 548.207031 C 78.890625 548.527344 79.265625 548.175781 79.679688 547.933594 C 80.757812 547.300781 81.863281 546.710938 82.914062 546.039062 C 83.636719 545.578125 84.277344 544.988281 84.976562 544.492188 C 85.792969 543.914062 86.59375 543.304688 87.472656 542.839844 C 88.710938 542.183594 90 541.605469 91.296875 541.078125 C 92.53125 540.578125 93.796875 540.152344 95.070312 539.761719 C 95.832031 539.53125 96.632812 539.355469 97.429688 539.296875 C 98.996094 539.183594 100.589844 538.976562 102.09375 539.664062 C 102.402344 539.804688 102.820312 539.921875 102.671875 540.519531 C 102.820312 540.390625 102.890625 540.332031 103.066406 540.179688 C 103.164062 540.746094 103.375 541.269531 103.304688 541.757812 C 103.140625 542.933594 102.84375 544.089844 102.613281 545.257812 C 102.578125 545.433594 102.648438 545.632812 102.613281 545.808594 C 102.539062 546.160156 102.429688 546.5 102.332031 546.847656 C 102.375 546.867188 102.417969 546.886719 102.460938 546.902344 C 102.652344 546.464844 102.839844 546.023438 103.042969 545.550781 C 103.242188 546.066406 102.785156 546.984375 101.773438 548.230469 C 101.53125 548.273438 101.316406 548.246094 101.222656 548.339844 C 101.085938 548.476562 101.03125 548.695312 100.960938 548.890625 C 100.90625 549.039062 100.933594 549.257812 100.835938 549.355469 C 100.054688 550.113281 99.25 550.847656 98.457031 551.59375 C 98.433594 551.613281 98.425781 551.648438 98.34375 551.808594 C 98.921875 551.742188 99.429688 551.707031 99.925781 551.621094 C 100.742188 551.484375 101.554688 551.332031 102.363281 551.15625 C 103 551.019531 103.628906 550.855469 104.25 550.664062 C 105.582031 550.257812 106.914062 550.007812 108.316406 550.234375 C 108.636719 550.285156 108.988281 550.144531 109.324219 550.136719 C 110.386719 550.117188 111.410156 550.402344 112.453125 550.546875 C 113.28125 550.65625 114.144531 550.496094 114.988281 550.53125 C 116.90625 550.609375 118.84375 550.574219 120.726562 550.871094 C 122.832031 551.203125 124.78125 552.035156 126.292969 553.671875 C 126.902344 554.332031 127.78125 554.4375 128.640625 554.492188 C 130.039062 554.574219 131.433594 554.660156 132.832031 554.730469 C 133.25 554.753906 133.671875 554.699219 134.09375 554.710938 C 134.65625 554.71875 135.21875 554.78125 135.78125 554.777344 C 136.464844 554.773438 137.152344 554.726562 137.835938 554.691406 C 138.234375 554.667969 138.632812 554.609375 139.03125 554.617188 C 139.402344 554.625 139.777344 554.695312 140.148438 554.746094 C 140.878906 554.84375 141.613281 554.921875 142.335938 555.0625 C 142.609375 555.113281 142.84375 555.347656 143.121094 555.429688 C 143.417969 555.519531 143.738281 555.546875 144.050781 555.554688 C 144.328125 555.5625 144.605469 555.503906 144.894531 555.546875 C 144.15625 555.925781 143.390625 556.164062 142.550781 556.121094 C 142.082031 556.097656 141.609375 556.054688 141.148438 556.09375 C 140.023438 556.191406 138.902344 556.339844 137.777344 556.453125 C 137.339844 556.5 136.894531 556.492188 136.457031 556.53125 C 135.976562 556.578125 135.5 556.660156 135.136719 557.015625 C 135.035156 556.96875 134.902344 556.855469 134.773438 556.859375 C 133.863281 556.882812 132.898438 556.757812 132.054688 557.011719 C 131.054688 557.316406 130.253906 556.808594 129.359375 556.746094 C 129.191406 556.734375 129.019531 556.714844 128.855469 556.738281 C 128.070312 556.84375 127.363281 556.457031 126.78125 556.109375 C 126.089844 555.699219 125.386719 555.210938 124.925781 554.429688 C 124.53125 553.757812 123.824219 553.28125 123.296875 552.679688 C 122.648438 551.9375 121.753906 551.800781 120.878906 551.695312 C 119.90625 551.574219 118.910156 551.566406 117.925781 551.578125 C 115.769531 551.601562 113.644531 551.925781 111.546875 552.410156 C 110.273438 552.703125 109.027344 553.082031 107.988281 553.9375 C 107.898438 554.011719 107.8125 554.085938 107.722656 554.160156 C 107.738281 554.179688 107.753906 554.195312 107.769531 554.214844 "/>

<g clip-path="url(#leaf)" clip-rule="nonzero">

<path style=" stroke:none;fill-rule:nonzero;fill:url(#linear0);" d="M 58.585938 582.007812 L 108.414062 532.179688 L 58.585938 482.347656 L 8.753906 532.179688 Z M 58.585938 582.007812 "/>

</g>
</g>
<g>
<text font-family="Arial, Helvetica, sans-serif" font-size="24" x="120" y="525" fill="#000000">国药肽谷(美国)公司</text>
<text font-family="Arial, Helvetica, sans-serif" font-size="34" font-weight="bold" x="150" y="570" fill="#000000">Peptide Valley</text>
</g>
</svg>
